<svg width="118" height="76" viewBox="0 0 118 76" fill="none" xmlns="http://www.w3.org/2000/svg">
<path d="M58.8939 0C66.8783 0 73.3537 6.49126 73.3537 14.4986C73.3537 22.5059 66.8783 28.9972 58.8939 28.9972C50.908 28.9972 44.4341 22.5059 44.4341 14.4986C44.4341 6.49126 50.908 0 58.8939 0ZM92.0387 0C100.025 0 106.499 6.49126 106.499 14.4986C106.499 22.5059 100.025 28.9972 92.0387 28.9972C84.0528 28.9972 77.579 22.5059 77.579 14.4986C77.579 6.49126 84.0528 0 92.0387 0ZM92.0387 4.85833C86.7288 4.85833 82.4243 9.17435 82.4243 14.4986C82.4243 19.8228 86.7288 24.1388 92.0387 24.1388C97.3487 24.1388 101.653 19.8228 101.653 14.4986C101.653 9.17435 97.3487 4.85833 92.0387 4.85833ZM118 56.5607V69.4803C118 72.6308 115.438 75.2 112.296 75.2H84.9224C86.1864 73.9161 87.0321 72.2203 87.2308 70.3417H112.296C112.763 70.3417 113.155 69.9492 113.155 69.4803V56.5607C113.155 37.5498 93.7749 31.7117 81.3381 38.5146C80.2668 37.1978 79.0775 36.0113 77.7926 34.9551C93.0293 25.6489 118 32.6286 118 56.5607ZM25.7476 0C33.732 0 40.2074 6.49126 40.2074 14.4986C40.2074 22.5059 33.732 28.9972 25.7476 28.9972C17.7617 28.9972 11.2878 22.5059 11.2878 14.4986C11.2878 6.49126 17.7617 0 25.7476 0ZM25.7476 4.85833C20.4376 4.85833 16.1332 9.17435 16.1332 14.4986C16.1332 19.8228 20.4376 24.1388 25.7476 24.1388C31.0576 24.1388 35.362 19.8228 35.362 14.4986C35.362 9.17435 31.0576 4.85833 25.7476 4.85833ZM33.0686 75.2H5.70442C2.56236 75.2 0 72.6308 0 69.4803V56.5607C0 32.9551 25.2411 25.5306 40.4524 34.9416C39.1481 35.9948 37.9379 37.1753 36.8457 38.4846C24.4179 31.6353 4.84532 37.833 4.84532 56.5607V69.4803C4.84532 69.9492 5.23677 70.3417 5.70442 70.3417H30.7692C30.9679 72.2263 31.8091 73.9206 33.0686 75.2ZM58.8939 4.85833C53.5839 4.85833 49.2795 9.17435 49.2795 14.4986C49.2795 19.8228 53.5839 24.1388 58.8939 24.1388C64.2039 24.1388 68.5084 19.8228 68.5084 14.4986C68.5084 9.17435 64.2039 4.85833 58.8939 4.85833ZM84.8537 56.5607V69.4803C84.8537 72.6308 82.2928 75.2 79.1507 75.2H38.8507C35.7087 75.2 33.1463 72.6308 33.1463 69.4803V56.5607C33.1463 22.7756 84.8537 22.1239 84.8537 56.5607ZM37.9916 56.5607V69.4803C37.9916 69.9492 38.3831 70.3417 38.8507 70.3417H79.1507C79.6169 70.3417 80.0083 69.9492 80.0083 69.4803V56.5607C80.0083 28.5702 37.9916 29.1245 37.9916 56.5607Z" fill="#3A86FF"/>
</svg>
