<svg width="23" height="19" viewBox="0 0 23 19"  xmlns="http://www.w3.org/2000/svg">
<path d="M3.22637 7.60623L6.98734 6.59453L14.7611 0.174471C15.0568 -0.102156 15.5484 0.0336071 15.6562 0.4375L19.4556 14.6726C19.5513 15.0533 19.2397 15.421 18.8447 15.3553L8.8819 13.6918L8.46547 13.8038L9.30724 16.9577C9.52716 17.7816 9.03243 18.5655 8.23133 18.781C7.45541 18.9897 6.64585 18.516 6.43606 17.73L5.5943 14.5762L5.12067 14.7036C4.83098 14.7815 4.53233 14.6067 4.45403 14.3133L4.36751 13.9891L3.01982 14.3517C2.73014 14.4296 2.43148 14.2548 2.35318 13.9614L2.0907 12.978C0.430505 13.4246 -0.196587 11.0677 1.46178 10.6216L1.1993 9.63815C1.121 9.34479 1.29257 9.04347 1.58225 8.96554L2.92994 8.60301L2.84341 8.27884C2.76512 7.98548 2.93668 7.68415 3.22637 7.60623ZM4.08382 12.9263L3.21362 9.66589L2.39074 9.88725L3.26094 13.1476L4.08382 12.9263ZM21.9697 10.0801C22.5894 10.4428 22.0479 11.3939 21.4282 11.0311L19.3623 9.82168C18.7427 9.45893 19.2842 8.50786 19.9038 8.87061L21.9697 10.0801ZM18.934 5.23691C18.578 5.8621 17.6354 5.31026 17.9913 4.68507L19.1781 2.60065C19.5341 1.97546 20.4767 2.5273 20.1207 3.15249L18.934 5.23691ZM18.8528 7.77577C18.1627 7.96141 17.879 6.89853 18.5691 6.7129L20.8693 6.09414C21.4678 5.93314 22.0043 6.9189 21.153 7.15702L18.8528 7.77577ZM7.41588 14.0862L6.6439 14.2938L7.48566 17.4477C7.54013 17.6517 7.74586 17.7724 7.94764 17.7181C8.17278 17.6575 8.32232 17.4823 8.25764 17.24L7.41588 14.0862ZM7.80924 7.33576L9.22426 12.6374L18.1868 14.1336L14.8258 1.54118L7.80924 7.33576ZM6.80369 7.78312L4.03485 8.52793L5.36178 13.4995L8.13062 12.7547L6.80369 7.78312Z" />
</svg>
