<svg width="100" height="125" viewBox="0 0 100 125" fill="none" xmlns="http://www.w3.org/2000/svg">
<path d="M86.5796 31.5167L85.3521 32.7455L92.2089 39.6092L93.5802 38.2365C94.0393 37.7767 94.4015 37.2295 94.6454 36.6272C94.8892 36.0249 95.0097 35.3798 94.9997 34.7301C94.9897 34.0804 94.8495 33.4393 94.5873 32.8447C94.3251 32.2502 93.9462 31.7143 93.4732 31.2689C92.5144 30.4122 91.2615 29.9596 89.9766 30.0058C88.6917 30.052 87.4744 30.5934 86.5796 31.5167Z" fill="#3A86FF"/>
<path d="M68 88.5C67.9996 88.8977 67.8414 89.279 67.5602 89.5602C67.279 89.8414 66.8977 89.9996 66.5 90H11.5C11.1023 89.9996 10.721 89.8414 10.4398 89.5602C10.1586 89.279 10.0004 88.8977 10 88.5V21H20C20.2652 21 20.5196 20.8946 20.7071 20.7071C20.8946 20.5196 21 20.2652 21 20V10H66.5C66.8977 10.0004 67.279 10.1586 67.5602 10.4398C67.8414 10.721 67.9996 11.1023 68 11.5V44.4558L73 39.4506V11.5C73 9.77609 72.3152 8.12279 71.0962 6.90381C69.8772 5.68482 68.2239 5 66.5 5H19.7066C18.9115 5.00004 18.149 5.31587 17.5867 5.87805L5.87812 17.5862C5.31588 18.1485 5.00001 18.911 5 19.7062V88.5C5 90.2239 5.68482 91.8772 6.90381 93.0962C8.12279 94.3152 9.77609 95 11.5 95H66.5C68.2239 95 69.8772 94.3152 71.0962 93.0962C72.3152 91.8772 73 90.2239 73 88.5V64.4973L68 69.5024V88.5Z" fill="#3A86FF"/>
<path d="M51.0966 67.0359C50.5033 67.6298 50.0563 68.3537 49.7911 69.1503L47.0218 77.4669C46.998 77.5381 46.9945 77.6145 47.0117 77.6876C47.029 77.7607 47.0662 77.8275 47.1192 77.8806C47.1723 77.9338 47.2391 77.971 47.3122 77.9883C47.3852 78.0056 47.4617 78.0022 47.5329 77.9785L55.8411 75.2064C56.6371 74.9407 57.3603 74.4933 57.9533 73.8996L90.1519 41.6684L83.2951 34.8046L51.0966 67.0359Z" fill="#3A86FF"/>
</svg>
