<svg width="24" height="30" viewBox="0 0 24 30" fill="none" xmlns="http://www.w3.org/2000/svg">
<path d="M12 24.3999C12.4416 24.3999 12.8 24.0399 12.8 23.5999V13.9999C12.8 13.5583 12.4416 13.1999 12 13.1999C11.5584 13.1999 11.2 13.5583 11.2 13.9999V23.5999C11.2 24.0399 11.5584 24.3999 12 24.3999ZM16.8 24.3999C17.24 24.3999 17.6 24.0399 17.6 23.5999V13.9999C17.6 13.5583 17.24 13.1999 16.8 13.1999C16.36 13.1999 16 13.5583 16 13.9999V23.5999C16 24.0399 16.36 24.3999 16.8 24.3999ZM22.4 3.5999H16V1.9999C16 1.1167 15.2848 0.399902 14.4 0.399902H9.6C8.7152 0.399902 8 1.1167 8 1.9999V3.5999H1.6C0.7152 3.5999 0 4.3167 0 5.1999V9.9999H1.6V25.9999C1.6 27.7679 3.0336 29.1999 4.8 29.1999H19.2C20.9664 29.1999 22.4 27.7679 22.4 25.9999V9.9999H24V5.1999C24 4.3167 23.2848 3.5999 22.4 3.5999ZM9.6 2.7999C9.6 2.3583 9.9584 1.9999 10.4 1.9999H13.6C14.04 1.9999 14.4 2.3583 14.4 2.7999V3.5999H9.6V2.7999ZM20.8 25.9999C20.8 26.8847 20.0848 27.5999 19.2 27.5999H4.8C3.9152 27.5999 3.2 26.8847 3.2 25.9999V9.9999H20.8V25.9999ZM22.4 8.3999H1.6V5.9999C1.6 5.5583 1.9584 5.1999 2.4 5.1999H21.6C22.04 5.1999 22.4 5.5583 22.4 5.9999V8.3999ZM7.2 24.3999C7.6416 24.3999 8 24.0399 8 23.5999V13.9999C8 13.5583 7.6416 13.1999 7.2 13.1999C6.7584 13.1999 6.4 13.5583 6.4 13.9999V23.5999C6.4 24.0399 6.7584 24.3999 7.2 24.3999Z" fill="#7C7C7C"/>
</svg>
