<svg width="24" height="24" viewBox="0 0 24 24" fill="none" xmlns="http://www.w3.org/2000/svg">
<path d="M23.3606 3.89581L20.0879 0.620337C19.2633 -0.204948 17.8288 -0.206534 17.001 0.621922L2.33992 15.4277C2.27492 15.4933 2.22803 15.5738 2.20246 15.6623L0.0206913 23.3051C-0.0336664 23.4954 0.0196174 23.7007 0.15973 23.8409C0.263588 23.9449 0.402627 24.0009 0.545398 24.0009C0.595461 24.0009 0.646085 23.9939 0.695074 23.9801L8.33138 21.7964C8.41979 21.7708 8.50023 21.7239 8.56573 21.6588L23.3606 6.98366C23.7729 6.57104 23.9998 6.02297 23.9998 5.43976C23.9998 4.85655 23.7729 4.30842 23.3606 3.89581ZM14.6241 4.58967L16.6319 6.59748L6.14925 17.0802L5.39693 15.5751C5.30422 15.3902 5.11568 15.2736 4.90899 15.2736H4.03549L14.6241 4.58967ZM1.33959 22.6612L2.05008 20.1741L3.82665 21.9506L1.33959 22.6612ZM7.63623 20.8623L5.0265 21.6079L2.39284 18.9742L3.13836 16.3645H4.57175L5.51189 18.2448C5.56461 18.3503 5.65036 18.436 5.75586 18.4888L7.63618 19.4289V20.8623H7.63623ZM8.72717 19.9653V19.0918C8.72717 18.8851 8.61053 18.6965 8.42567 18.6038L6.92053 17.8515L17.4032 7.36882L19.411 9.37662L8.72717 19.9653ZM22.5909 6.22516L20.1858 8.60876L15.3919 3.81491L17.774 1.41146C18.1863 0.999153 18.9043 0.999153 19.3166 1.41146L22.5893 4.68417C22.7954 4.8903 22.9089 5.16408 22.9089 5.45546C22.9089 5.74683 22.7954 6.02061 22.5909 6.22516Z" fill="#7C7C7C"/>
</svg>
