<svg width="100" height="125" viewBox="0 0 100 125" fill="none" xmlns="http://www.w3.org/2000/svg">
<path d="M86.5796 31.5167L85.3521 32.7455L92.2089 39.6092L93.5802 38.2365C94.0393 37.7767 94.4015 37.2295 94.6454 36.6272C94.8892 36.0249 95.0097 35.3798 94.9997 34.7301C94.9897 34.0804 94.8495 33.4393 94.5873 32.8447C94.3251 32.2502 93.9462 31.7143 93.4732 31.2689C92.5144 30.4122 91.2615 29.9596 89.9766 30.0058C88.6917 30.052 87.4744 30.5934 86.5796 31.5167Z" fill="#3A86FF"/>
<path d="M68.0002 88.5C67.9998 88.8977 67.8416 89.279 67.5604 89.5602C67.2792 89.8414 66.8979 89.9996 66.5002 90H11.5002C11.1026 89.9996 10.7213 89.8414 10.4401 89.5602C10.1589 89.279 10.0007 88.8977 10.0002 88.5V21H20.0002C20.2655 21 20.5198 20.8946 20.7073 20.7071C20.8949 20.5196 21.0002 20.2652 21.0002 20V10H66.5002C66.8979 10.0004 67.2792 10.1586 67.5604 10.4398C67.8416 10.721 67.9998 11.1023 68.0002 11.5V44.4558L73.0002 39.4506V11.5C73.0002 9.77609 72.3154 8.12279 71.0964 6.90381C69.8775 5.68482 68.2241 5 66.5002 5H19.7069C18.9118 5.00004 18.1492 5.31587 17.587 5.87805L5.87836 17.5862C5.31613 18.1485 5.00026 18.911 5.00024 19.7062V88.5C5.00024 90.2239 5.68506 91.8772 6.90405 93.0962C8.12304 94.3152 9.77634 95 11.5002 95H66.5002C68.2241 95 69.8775 94.3152 71.0964 93.0962C72.3154 91.8772 73.0002 90.2239 73.0002 88.5V64.4973L68.0002 69.5024V88.5Z" fill="#3A86FF"/>
<path d="M51.0963 67.0359C50.503 67.6298 50.0561 68.3537 49.7909 69.1503L47.0215 77.4669C46.9978 77.5381 46.9943 77.6145 47.0115 77.6876C47.0287 77.7607 47.0659 77.8275 47.119 77.8806C47.1721 77.9337 47.2389 77.971 47.3119 77.9883C47.385 78.0056 47.4614 78.0022 47.5327 77.9785L55.8409 75.2064C56.6369 74.9407 57.3601 74.4933 57.9531 73.8996L90.1516 41.6684L83.2949 34.8046L51.0963 67.0359Z" fill="#3A86FF"/>
</svg>
