<svg width="100" height="125" viewBox="0 0 100 125" fill="none" xmlns="http://www.w3.org/2000/svg">
<path d="M61.0002 28H17.0002V32H61.0002V28Z" fill="#3A86FF"/>
<path d="M60.97 51.5H17V55.5H56.97L60.97 51.5Z" fill="#3A86FF"/>
<path d="M49.75 64.75L53.25 63L17.2502 63V67H46.4902C49.5 65 49 65.5 49.75 64.75Z" fill="#3A86FF"/>
<path d="M42.305 74.8916L17.0002 75V79L37.9445 78.8916C38.5 78.5 39.5 77 40.6747 76.0916L42.305 74.8916Z" fill="#3A86FF"/>
<path d="M68.0002 88.5C67.9998 88.8977 67.8416 89.279 67.5604 89.5602C67.2792 89.8414 66.8979 89.9996 66.5002 90H11.5002C11.1026 89.9996 10.7213 89.8414 10.4401 89.5602C10.1589 89.279 10.0007 88.8977 10.0002 88.5V21H20.0002C20.2655 21 20.5198 20.8946 20.7073 20.7071C20.8949 20.5196 21.0002 20.2652 21.0002 20V10H66.5002C66.8979 10.0004 67.2792 10.1586 67.5604 10.4398C67.8416 10.721 67.9998 11.1023 68.0002 11.5V71L73.0002 66.5V11.5C73.0002 9.77609 72.3154 8.12279 71.0964 6.90381C69.8775 5.68482 68.2241 5 66.5002 5H19.7069C18.9118 5.00004 18.1492 5.31587 17.587 5.87805L5.87836 17.5862C5.31613 18.1485 5.00026 18.911 5.00024 19.7062V88.5C5.00024 90.2239 5.68506 91.8772 6.90405 93.0962C8.12304 94.3152 9.77634 95 11.5002 95H66.5002C68.2241 95 69.8775 94.3152 71.0964 93.0962C72.3154 91.8772 73.0002 90.2239 73.0002 88.5V64.4973L68.0002 69.5024V88.5Z" fill="#3A86FF"/>
</svg>
