<svg width="100" height="125" viewBox="0 0 100 125" fill="none" xmlns="http://www.w3.org/2000/svg">
<path d="M61 28H17V32H61V28Z" fill="#3A86FF"/>
<path d="M60.97 51.5H17V55.5H56.97L60.97 51.5Z" fill="#3A86FF"/>
<path d="M49.7498 64.75L53.2498 63L17.25 63V67H46.49C49.4998 65 48.9998 65.5 49.7498 64.75Z" fill="#3A86FF"/>
<path d="M42.3052 74.8916L17.0005 75V79L37.9447 78.8916C38.5002 78.5 39.5002 77 40.675 76.0916L42.3052 74.8916Z" fill="#3A86FF"/>
<path d="M68 88.5C67.9996 88.8977 67.8414 89.279 67.5602 89.5602C67.279 89.8414 66.8977 89.9996 66.5 90H11.5C11.1023 89.9996 10.721 89.8414 10.4398 89.5602C10.1586 89.279 10.0004 88.8977 10 88.5V21H20C20.2652 21 20.5196 20.8946 20.7071 20.7071C20.8946 20.5196 21 20.2652 21 20V10H66.5C66.8977 10.0004 67.279 10.1586 67.5602 10.4398C67.8414 10.721 67.9996 11.1023 68 11.5V71L73 66.5V11.5C73 9.77609 72.3152 8.12279 71.0962 6.90381C69.8772 5.68482 68.2239 5 66.5 5H19.7066C18.9115 5.00004 18.149 5.31587 17.5867 5.87805L5.87812 17.5862C5.31588 18.1485 5.00001 18.911 5 19.7062V88.5C5 90.2239 5.68482 91.8772 6.90381 93.0962C8.12279 94.3152 9.77609 95 11.5 95H66.5C68.2239 95 69.8772 94.3152 71.0962 93.0962C72.3152 91.8772 73 90.2239 73 88.5V64.4973L68 69.5024V88.5Z" fill="#3A86FF"/>
</svg>
