<svg width="31" height="31" viewBox="0 0 31 31" fill="none" xmlns="http://www.w3.org/2000/svg">
<rect width="31" height="31" rx="4" fill="#3A86FF"/>
<path d="M24.3289 8.7998C24.891 8.7998 25.3601 9.26203 25.3601 9.82418V20.9686C25.3601 21.5307 24.891 21.9998 24.3289 21.9998H7.03136C6.4692 21.9998 6.00011 21.5307 6.00011 20.9686V9.82418C6.00011 9.26203 6.4692 8.7998 7.03136 8.7998H24.3289ZM23.6757 9.6798H7.68448L15.6801 15.9154L23.6757 9.6798ZM24.4801 10.1611L18.2582 15.0148L24.4801 20.5492V10.1611ZM6.88011 10.1611V20.5492L13.102 15.0148L6.88011 10.1611ZM17.5501 15.5648L15.9482 16.8161C15.8713 16.8751 15.7771 16.9072 15.6801 16.9072C15.5831 16.9072 15.4889 16.8751 15.412 16.8161L13.8101 15.5648L7.56073 21.1198H23.7995L17.5501 15.5648Z" fill="white"/>
</svg>
