<svg width="15" height="18" viewBox="0 0 15 18" xmlns="http://www.w3.org/2000/svg">
<path d="M7.5 0.627441C10.4544 0.627441 12.8503 3.04838 12.8503 6.03353C12.8503 7.99402 11.8141 9.7131 10.2644 10.6611C12.8785 11.7061 14.7752 14.1874 15 17.1414H13.6517C13.3577 13.9697 10.7154 11.4871 7.5 11.4871C4.28456 11.4871 1.64228 13.9697 1.34832 17.1414H0C0.224832 14.1874 2.12148 11.7061 4.73557 10.6611C3.18591 9.71377 2.14966 7.99538 2.14966 6.03353C2.14966 3.04838 4.54564 0.627441 7.5 0.627441V0.627441ZM7.5 1.98371C5.28658 1.98371 3.49195 3.79704 3.49195 6.03353C3.49195 8.27274 5.28456 10.0827 7.5 10.0827C9.71342 10.0827 11.5081 8.2707 11.5081 6.03353C11.5081 3.79704 9.71342 1.98371 7.5 1.98371Z" />
</svg>
