<svg width="17" height="18" viewBox="0 0 17 18" fill="none" xmlns="http://www.w3.org/2000/svg">
<path d="M8.5 0.815674C10.7543 0.815674 12.9164 1.71472 14.5104 3.31502C16.1045 4.91532 17 7.0858 17 9.34897C17 11.6121 16.1045 13.7826 14.5104 15.3829C12.9164 16.9832 10.7543 17.8823 8.5 17.8823C6.56032 17.89 4.67769 17.2239 3.17145 15.9969C1.80077 14.8897 0.80607 13.3829 0.32456 11.6842C-0.156952 9.98544 -0.101545 8.17857 0.483133 6.5128C1.06781 4.84703 2.15295 3.40444 3.58887 2.38401C5.02479 1.36359 6.74074 0.815611 8.5 0.815674ZM8.50019 3.80395C7.95398 3.80395 7.42004 3.96655 6.96588 4.2712C6.51173 4.57584 6.15775 5.00885 5.94873 5.51546C5.7397 6.02206 5.68501 6.57952 5.79157 7.11733C5.89813 7.65515 6.16116 8.14916 6.54738 8.5369C6.93361 8.92464 7.4257 9.1887 7.96141 9.29568C8.49712 9.40266 9.0524 9.34775 9.55704 9.13791C10.0617 8.92806 10.493 8.57271 10.7964 8.11677C11.0999 7.66083 11.2619 7.1248 11.2619 6.57645C11.2619 5.84114 10.9709 5.13594 10.453 4.616C9.93508 4.09605 9.23264 3.80395 8.50019 3.80395ZM3.05359 14.3282C3.30942 14.6099 3.58643 14.8715 3.88219 15.1106C5.34293 16.2928 7.1983 16.8702 9.06899 16.7248C10.9397 16.5794 12.6844 15.7221 13.9464 14.3282C14.0682 14.1943 14.1829 14.0554 14.2938 13.9139C13.8417 12.0338 11.4211 10.5967 8.49999 10.5967C5.58076 10.5967 3.15898 12.0336 2.70628 13.9136C2.81713 14.0551 2.93187 14.1942 3.05359 14.3282Z" fill="#7C7C7C"/>
</svg>
