<svg width="15" height="15" viewBox="0 0 15 15" xmlns="http://www.w3.org/2000/svg">
<path d="M5.75483 0.0117493C5.47495 0.0117493 5.23373 0.288913 5.20372 0.506777L5.06449 1.7473C5.00385 1.77205 4.94368 1.79659 4.88465 1.823L3.91004 1.04258C3.69837 0.872038 3.35937 0.89064 3.16748 1.08336L1.06744 3.19164C0.878545 3.3837 0.860106 3.71957 1.02683 3.93128L1.80999 4.91554C1.7844 4.97319 1.7586 5.03111 1.73458 5.09026L0.493115 5.23004C0.2234 5.26129 -0.00175328 5.51658 1.02905e-05 5.78914V8.77102C0.00112413 9.04165 0.225323 9.29326 0.493115 9.32429L1.73458 9.46406C1.7586 9.52324 1.7844 9.58114 1.80999 9.63878L1.02683 10.623C0.860106 10.8348 0.878545 11.1707 1.06744 11.3627L3.16748 13.471C3.3579 13.6654 3.697 13.6867 3.91004 13.5176L4.89045 12.7313C4.94791 12.757 5.00551 12.783 5.06449 12.807L5.20372 14.0476C5.232 14.3184 5.48354 14.547 5.75483 14.5484H8.72507C8.99636 14.5466 9.2479 14.3184 9.27618 14.0476L9.41541 12.807C9.47439 12.783 9.53199 12.757 9.58945 12.7313L10.5699 13.5176C10.7829 13.6867 11.122 13.6654 11.3124 13.471L13.4125 11.3627C13.6014 11.1707 13.6198 10.8348 13.4531 10.623L12.6699 9.63878C12.6955 9.58114 12.7213 9.52324 12.7453 9.46406L13.9868 9.32429C14.2546 9.29326 14.4788 9.04165 14.4799 8.77102V5.78914C14.4817 5.51658 14.2565 5.26129 13.9868 5.23004L12.7453 5.09026C12.7213 5.03111 12.6955 4.97319 12.6699 4.91554L13.4531 3.93128C13.6198 3.71957 13.6014 3.3837 13.4125 3.19164L11.3124 1.08336C11.1205 0.89064 10.7815 0.872038 10.5699 1.04258L9.59525 1.823C9.53621 1.79659 9.47605 1.77205 9.41541 1.7473L9.27618 0.506777C9.24527 0.237941 8.99463 0.0128116 8.72507 0.0117493H5.75483ZM6.24794 1.12995H8.23196L8.34799 2.19573C8.37018 2.40759 8.52385 2.59985 8.72507 2.66749C8.96229 2.74455 9.19468 2.84532 9.42701 2.9645C9.61655 3.06344 9.86305 3.03964 10.0303 2.90626L10.8773 2.22486L12.2754 3.62843L11.5967 4.47873C11.4661 4.64557 11.4425 4.88968 11.5387 5.07862C11.6574 5.31187 11.7578 5.54517 11.8345 5.78331C11.8992 5.98583 12.0883 6.1424 12.2986 6.16769L13.3661 6.29V8.26432L12.2986 8.38664C12.0883 8.41193 11.8992 8.5685 11.8345 8.77102C11.7578 9.00916 11.6574 9.24247 11.5387 9.47571C11.4425 9.66465 11.4661 9.90876 11.5967 10.0756L12.2754 10.9259L10.8773 12.3295L10.0303 11.6539C9.86423 11.5187 9.61763 11.4925 9.42701 11.5898C9.19467 11.709 8.96228 11.8098 8.72507 11.8869C8.52385 11.9545 8.37018 12.1467 8.34799 12.3586L8.22616 13.4302H6.25374L6.13191 12.3586C6.10972 12.1467 5.95605 11.9545 5.75483 11.8869C5.51762 11.8098 5.28523 11.709 5.05288 11.5898C4.86227 11.4925 4.61567 11.5187 4.44956 11.6539L3.60258 12.3295L2.20448 10.9259L2.88322 10.0756C3.01379 9.90876 3.0374 9.66465 2.94124 9.47571C2.82252 9.24247 2.72214 9.00916 2.64537 8.77102C2.58066 8.5685 2.39163 8.41193 2.18127 8.38664L1.11385 8.26432V6.29L2.18127 6.16769C2.39163 6.1424 2.58066 5.98583 2.64537 5.78331C2.72214 5.54517 2.82252 5.31187 2.94124 5.07862C3.0374 4.88968 3.01379 4.64557 2.88322 4.47873L2.20448 3.62843L3.60258 2.22486L4.44956 2.90626C4.61685 3.03964 4.86334 3.06344 5.05288 2.9645C5.28522 2.84532 5.51761 2.74455 5.75483 2.66749C5.95605 2.59985 6.10972 2.40759 6.13191 2.19573L6.24794 1.12995ZM7.23995 3.55273C5.19603 3.55273 3.52716 5.22813 3.52716 7.28008C3.52716 9.33201 5.19603 11.0074 7.23995 11.0074C9.28387 11.0074 10.9527 9.33201 10.9527 7.28008C10.9527 5.22813 9.28387 3.55273 7.23995 3.55273ZM7.23995 4.67094C8.68191 4.67094 9.8389 5.83245 9.8389 7.28008C9.8389 8.72769 8.68191 9.88923 7.23995 9.88923C5.79799 9.88923 4.641 8.72769 4.641 7.28008C4.641 5.83245 5.79799 4.67094 7.23995 4.67094Z" />
</svg>
